<svg id="LOGO_NUTRITION" data-name="LOGO NUTRITION" xmlns="http://www.w3.org/2000/svg" viewBox="0 0 35 35"><defs><style>.cls-1{fill:#c49f51;}</style></defs><title>HO_essential_site</title><path class="cls-1" d="M23.4,5.72l-4.71,4.71L21,12.79,19.86,14l-1.18-1.18h0L17.5,11.61,15.14,14,14,12.79l2.36-2.36h0L12.79,6.89h0L9.25,10.43h0l2.36,2.36L10.43,14,6.9,10.43,12.32,5h7.07L16.33,8.07,17.5,9.25,21.75,5h0l1.67-1.67H11.63l-7.1,7.1,1.18,1.18h0l3.54,3.54,1.18,1.18,1.18-1.18h0L12.79,14,14,15.14l-1.18,1.18h0L11.61,17.5,14,19.86,12.79,21l-2.36-2.36h0L6.89,22.21l1.18,1.18,1.18,1.18h0l1.18,1.18,2.36-2.36L14,24.57,10.43,28.1,5,22.68V15.61l3.07,3.07L9.25,17.5,5,13.25H5L3.33,11.58h0V23.36h0l7.1,7.1,1.18-1.18h0l4.71-4.71L14,22.21,15.14,21l1.18,1.18h0l1.18,1.18L19.86,21,21,22.21l-2.36,2.36h0l3.53,3.53h0l2.36-2.36,1.18-1.18h0l-2.36-2.36L24.57,21l3.54,3.54L22.68,30H15.61l3.07-3.07L17.5,25.75,13.25,30h0l-1.67,1.67H23.37l7.1-7.1-1.18-1.18h0l-3.54-3.54h0l-1.18-1.18-1.18,1.18h0L22.21,21,21,19.86l1.18-1.18h0l1.18-1.18L21,15.14,22.21,14l2.36,2.36h0l3.53-3.53h0l-1.18-1.18-1.18-1.18L24.57,9.25h0l-2.36,2.36L21,10.43,24.57,6.9,30,12.32v7.07l-3.07-3.07L25.75,17.5,30,21.75h0l1.67,1.67h0V11.64h0l-7.1-7.1L23.39,5.71ZM11.61,10.43l1.18-1.18L14,10.43l-1.18,1.18Zm-1.18,13L9.25,22.21,10.43,21l1.18,1.18Zm13,1.18-1.18,1.18L21,24.57l1.18-1.18ZM17.5,14l1.18,1.18L17.5,16.32l-1.18-1.18ZM14,17.5l1.18-1.18,1.18,1.18-1.18,1.18ZM17.5,21l-1.18-1.18,1.18-1.18,1.18,1.18ZM21,17.5l-1.18,1.18L18.68,17.5l1.18-1.18Zm3.54-5.89,1.18,1.18L24.57,14l-1.18-1.18Z"/><path class="cls-1" d="M24.75,0H10.25L0,10.25v14.5L10.25,35h14.5L35,24.75V10.25Zm8.58,24.06-9.27,9.27H10.94L1.67,24.06V10.94l9.27-9.27H24.06l9.27,9.27Z"/></svg>